<svg id="Capa_1" enable-background="new 0 0 507.089 507.089" height="512" viewBox="0 0 507.089 507.089" width="512" xmlns="http://www.w3.org/2000/svg"><g><path d="m461.377.027-113.138-.027c-5.522-.001-10.001 4.475-10.002 9.998l-.011 46.569-56.598-.014c-5.522-.001-10.001 4.475-10.002 9.998l-.013 54.362c-.003 12.84 19.997 12.863 20 .005l.011-44.362 46.598.011-.011 46.568c-.001 5.523 4.475 10.001 9.998 10.002l113.138.027c5.522.001 10.001-4.475 10.002-9.998l.027-113.137c0-5.523-4.477-10.001-9.999-10.002zm-10.027 113.135-93.138-.022.011-46.568s0 0 0-.001 0 0 0-.001l.011-46.568 93.138.022z"/><path d="m461.332 186.989-113.138-.027c-5.522-.001-10.001 4.475-10.002 9.998l-.011 46.568-46.598-.011.01-42.192c.003-12.84-19.997-12.863-20-.005l-.01 42.192-46.598-.011.025-103.137c.001-5.523-4.475-10.001-9.998-10.002l-169.241-.04c-5.522-.001-10.001 4.475-10.002 9.998l-.054 226.274c-.001 5.522 4.475 10.001 9.998 10.002l169.241.041c5.522.001 10.001-4.475 10.002-9.998l.025-103.138 46.598.011-.042 176.963c-.001 5.522 4.475 10.001 9.998 10.002l56.598.014-.011 46.568c-.001 5.522 4.475 10.001 9.998 10.002l113.138.027c5.522.001 10.001-4.475 10.002-9.998l.027-113.137c.001-5.522-4.475-10.001-9.998-10.002l-113.138-.027c-5.522-.001-10.001 4.475-10.002 9.998l-.011 46.568-46.598-.011.04-166.963 46.598.011-.011 46.569c-.001 5.522 4.475 10.001 9.998 10.002l113.138.027c5.522.001 10.001-4.475 10.002-9.998l.027-113.138c-.001-5.52-4.478-9.998-10-10zm-256.374 169.645-149.241-.036.049-206.274 149.241.036zm246.324 37.316-.022 93.137-93.138-.022.022-93.137zm.023-93.825-93.138-.022.011-46.569s0 0 0-.001 0 0 0-.001l.011-46.568 93.138.022z"/><path d="m272.355 165.453c2.067 5.042 8.035 7.496 13.059 5.413 5.033-2.086 7.497-8.022 5.412-13.059s-8.026-7.489-13.058-5.413c-5.029 2.075-7.504 8.034-5.413 13.059z"/></g></svg>